<svg xmlns="http://www.w3.org/2000/svg" viewBox="0 0 512 512" fill="#D2691E">
  <path d="M256 0c-17.7 0-32 14.3-32 32v64c0 17.7 14.3 32 32 32s32-14.3 32-32V32c0-17.7-14.3-32-32-32z"/>
  <path d="M256 128c-70.7 0-128 57.3-128 128c0 5.4.3 10.7 1 15.9c-.6 1.3-1 2.7-1 4.1v192c0 17.7 14.3 32 32 32h192c17.7 0 32-14.3 32-32V276c0-1.4-.4-2.8-1-4.1c.6-5.2 1-10.5 1-15.9c0-70.7-57.3-128-128-128z"/>
  <circle cx="256" cy="256" r="40" fill="#FFD700"/>
  <path d="M96 320c-17.7 0-32 14.3-32 32v128c0 17.7 14.3 32 32 32s32-14.3 32-32V352c0-17.7-14.3-32-32-32z"/>
  <path d="M416 320c-17.7 0-32 14.3-32 32v128c0 17.7 14.3 32 32 32s32-14.3 32-32V352c0-17.7-14.3-32-32-32z"/>
  <path d="M32 480c-17.7 0-32 14.3-32 32s14.3 32 32 32h448c17.7 0 32-14.3 32-32s-14.3-32-32-32H32z"/>
</svg>